# xmcd
#
# Track frame offsets:
#	150
#	18291
#	32079
#	46050
#	60800
#	74004
#	89905
#	102794
#	118639
#	132508
#	145670
#	161768
#	176998
#	190351
#	205310
#	220613
#	236990
#	250120
#	265992
#
# Disc length: 3786 seconds
#
# Revision: 1
# Processed by: cddbd v1.5.2PL0 Copyright (c) Steve Scherf et al.
# Submitted via: audiograbber 1.83.01
#
DISCID=1c0ec813
DTITLE=Truck Stop - Das große Jubiläum - 03 - Unsere rockigsten Songs
DYEAR=2018
DGENRE=Country
TTITLE0=Supertrucker-Festival
TTITLE1=Die Schüler von der letzten Bank
TTITLE2=Du brauchst'n Ofen
TTITLE3=Bauchgefühl
TTITLE4=Wer ist der Kerl
TTITLE5=Wie schön, wenn so ein Wunder wieder wahr wird
TTITLE6=Rosalinda
TTITLE7=Trucker lieben die Freiheit
TTITLE8=Hardrocker
TTITLE9=Sein Name ist...
TTITLE10=Auf die Piste gehen
TTITLE11=Willkommen in der Familie
TTITLE12=Wo ist das Feuer
TTITLE13=Leb' dein Leben
TTITLE14=Mama macht Karriere
TTITLE15=Männer sind so
TTITLE16=Ich guck das Spiel, Schatz
TTITLE17=Wenn Männerherzen brechen
TTITLE18=Letzter Halt
EXTD=
EXTT0=
EXTT1=
EXTT2=
EXTT3=
EXTT4=
EXTT5=
EXTT6=
EXTT7=
EXTT8=
EXTT9=
EXTT10=
EXTT11=
EXTT12=
EXTT13=
EXTT14=
EXTT15=
EXTT16=
EXTT17=
EXTT18=
PLAYORDER=
